<?xml version="1.0" encoding="UTF-8"?>
<svg xmlns="http://www.w3.org/2000/svg" xmlns:xlink="http://www.w3.org/1999/xlink" width="511.48pt" height="371.86pt" viewBox="0 0 511.48 371.86" version="1.1">
<defs>
<clipPath id="clip1">
  <path d="M 0 0 L 511.480469 0 L 511.480469 168 L 0 168 Z M 0 0 "/>
</clipPath>
<clipPath id="clip2">
  <path d="M 0 204 L 511.480469 204 L 511.480469 371.859375 L 0 371.859375 Z M 0 204 "/>
</clipPath>
</defs>
<g id="surface1">
<g clip-path="url(#clip1)" clip-rule="nonzero">
<path style=" stroke:none;fill-rule:nonzero;fill:rgb(65.499878%,66.299438%,67.498779%);fill-opacity:1;" d="M 511.480469 144.699219 C 511.480469 157.183594 501.359375 167.308594 488.875 167.308594 L 22.609375 167.308594 C 10.125 167.308594 0 157.183594 0 144.699219 L 0 22.609375 C 0 10.125 10.125 0 22.609375 0 L 488.875 0 C 501.359375 0 511.480469 10.125 511.480469 22.609375 L 511.480469 144.699219 "/>
</g>
<path style=" stroke:none;fill-rule:nonzero;fill:rgb(100%,100%,100%);fill-opacity:1;" d="M 90.277344 117.382813 L 44.730469 117.382813 L 44.730469 49.300781 L 90.277344 49.300781 Z M 67.503906 132.363281 C 64.179688 132.363281 61.484375 129.664063 61.484375 126.339844 C 61.484375 123.011719 64.179688 120.316406 67.503906 120.316406 C 70.835938 120.316406 73.53125 123.011719 73.53125 126.339844 C 73.53125 129.664063 70.835938 132.363281 67.503906 132.363281 Z M 88.335938 28.613281 L 46.671875 28.613281 C 41.679688 28.613281 37.632813 32.65625 37.632813 37.652344 L 37.632813 129.957031 C 37.632813 134.953125 41.679688 139 46.671875 139 L 88.335938 139 C 93.332031 139 97.382813 134.953125 97.382813 129.957031 L 97.382813 37.652344 C 97.382813 32.65625 93.332031 28.613281 88.335938 28.613281 "/>
<path style=" stroke:none;fill-rule:nonzero;fill:rgb(100%,100%,100%);fill-opacity:1;" d="M 139.496094 42.605469 L 137.074219 35.585938 C 136.566406 33.992188 136.203125 32.546875 135.84375 31.136719 L 135.738281 31.136719 C 135.410156 32.546875 135.015625 34.066406 134.542969 35.546875 L 132.15625 42.605469 Z M 131.503906 45.0625 L 128.972656 52.730469 L 125.714844 52.730469 L 134 28.347656 L 137.800781 28.347656 L 146.121094 52.730469 L 142.753906 52.730469 L 140.148438 45.0625 L 131.503906 45.0625 "/>
<path style=" stroke:none;fill-rule:nonzero;fill:rgb(100%,100%,100%);fill-opacity:1;" d="M 149.378906 35.222656 L 152.8125 45.027344 C 153.394531 46.652344 153.863281 48.101563 154.226563 49.550781 L 154.335938 49.550781 C 154.734375 48.101563 155.238281 46.652344 155.816406 45.027344 L 159.21875 35.222656 L 162.546875 35.222656 L 155.671875 52.730469 L 152.632813 52.730469 L 145.980469 35.222656 L 149.378906 35.222656 "/>
<path style=" stroke:none;fill-rule:nonzero;fill:rgb(100%,100%,100%);fill-opacity:1;" d="M 174.085938 43.796875 C 170.613281 43.722656 166.675781 44.339844 166.675781 47.742188 C 166.675781 49.839844 168.046875 50.78125 169.636719 50.78125 C 171.953125 50.78125 173.4375 49.332031 173.945313 47.847656 C 174.050781 47.523438 174.085938 47.160156 174.085938 46.835938 Z M 177.199219 48.539063 C 177.199219 50.054688 177.273438 51.535156 177.453125 52.730469 L 174.597656 52.730469 L 174.304688 50.527344 L 174.195313 50.527344 C 173.257813 51.902344 171.339844 53.132813 168.84375 53.132813 C 165.296875 53.132813 163.488281 50.636719 163.488281 48.101563 C 163.488281 43.867188 167.253906 41.554688 174.015625 41.589844 L 174.015625 41.226563 C 174.015625 39.78125 173.617188 37.136719 170.039063 37.179688 C 168.371094 37.179688 166.675781 37.644531 165.441406 38.476563 L 164.714844 36.339844 C 166.164063 35.4375 168.300781 34.824219 170.503906 34.824219 C 175.898438 34.824219 177.199219 38.476563 177.199219 41.988281 L 177.199219 48.539063 "/>
<path style=" stroke:none;fill-rule:nonzero;fill:rgb(100%,100%,100%);fill-opacity:1;" d="M 182.117188 52.730469 L 182.117188 35.222656 L 185.304688 35.222656 L 185.304688 52.730469 Z M 183.636719 32.003906 C 182.445313 32.003906 181.648438 31.0625 181.648438 29.941406 C 181.648438 28.820313 182.480469 27.914063 183.710938 27.914063 C 184.941406 27.914063 185.738281 28.820313 185.738281 29.941406 C 185.738281 31.0625 184.941406 32.003906 183.675781 32.003906 L 183.636719 32.003906 "/>
<path style=" stroke:none;fill-rule:nonzero;fill:rgb(100%,100%,100%);fill-opacity:1;" d="M 190.402344 27.046875 L 193.585938 27.046875 L 193.585938 52.730469 L 190.402344 52.730469 L 190.402344 27.046875 "/>
<path style=" stroke:none;fill-rule:nonzero;fill:rgb(100%,100%,100%);fill-opacity:1;" d="M 207.914063 43.796875 C 204.4375 43.722656 200.492188 44.339844 200.492188 47.742188 C 200.492188 49.839844 201.871094 50.78125 203.460938 50.78125 C 205.777344 50.78125 207.261719 49.332031 207.765625 47.847656 C 207.878906 47.523438 207.914063 47.160156 207.914063 46.835938 Z M 211.023438 48.539063 C 211.023438 50.054688 211.097656 51.535156 211.277344 52.730469 L 208.414063 52.730469 L 208.128906 50.527344 L 208.019531 50.527344 C 207.078125 51.902344 205.164063 53.132813 202.664063 53.132813 C 199.121094 53.132813 197.3125 50.636719 197.3125 48.101563 C 197.3125 43.867188 201.074219 41.554688 207.839844 41.589844 L 207.839844 41.226563 C 207.839844 39.78125 207.441406 37.136719 203.859375 37.179688 C 202.195313 37.179688 200.492188 37.644531 199.265625 38.476563 L 198.539063 36.339844 C 199.988281 35.4375 202.125 34.824219 204.328125 34.824219 C 209.722656 34.824219 211.023438 38.476563 211.023438 41.988281 L 211.023438 48.539063 "/>
<path style=" stroke:none;fill-rule:nonzero;fill:rgb(100%,100%,100%);fill-opacity:1;" d="M 219.125 45.714844 C 219.125 46.109375 219.160156 46.507813 219.238281 46.871094 C 219.847656 49.078125 221.730469 50.597656 224.011719 50.597656 C 227.375 50.597656 229.328125 47.886719 229.328125 43.867188 C 229.328125 40.324219 227.519531 37.324219 224.121094 37.324219 C 221.949219 37.324219 219.921875 38.839844 219.304688 41.226563 C 219.199219 41.628906 219.125 42.0625 219.125 42.566406 Z M 215.941406 27.046875 L 219.125 27.046875 L 219.125 38.007813 L 219.199219 38.007813 C 220.320313 36.054688 222.34375 34.824219 225.164063 34.824219 C 229.507813 34.824219 232.546875 38.441406 232.546875 43.722656 C 232.546875 50.019531 228.566406 53.132813 224.660156 53.132813 C 222.132813 53.132813 220.136719 52.152344 218.800781 49.839844 L 218.726563 49.839844 L 218.542969 52.730469 L 215.800781 52.730469 C 215.90625 51.535156 215.941406 49.765625 215.941406 48.210938 L 215.941406 27.046875 "/>
<path style=" stroke:none;fill-rule:nonzero;fill:rgb(100%,100%,100%);fill-opacity:1;" d="M 236.34375 27.046875 L 239.527344 27.046875 L 239.527344 52.730469 L 236.34375 52.730469 L 236.34375 27.046875 "/>
<path style=" stroke:none;fill-rule:nonzero;fill:rgb(100%,100%,100%);fill-opacity:1;" d="M 255.734375 42.242188 C 255.769531 40.25 254.898438 37.066406 251.355469 37.066406 C 248.101563 37.066406 246.726563 40.03125 246.472656 42.242188 Z M 246.4375 44.519531 C 246.507813 48.828125 249.222656 50.597656 252.40625 50.597656 C 254.6875 50.597656 256.097656 50.199219 257.253906 49.730469 L 257.832031 51.972656 C 256.714844 52.476563 254.757813 53.09375 251.972656 53.09375 C 246.617188 53.09375 243.359375 49.511719 243.359375 44.265625 C 243.359375 38.949219 246.507813 34.789063 251.613281 34.789063 C 257.324219 34.789063 258.808594 39.820313 258.808594 43.035156 C 258.808594 43.6875 258.773438 44.195313 258.699219 44.558594 L 246.4375 44.519531 "/>
<path style=" stroke:none;fill-rule:nonzero;fill:rgb(100%,100%,100%);fill-opacity:1;" d="M 277.292969 50.742188 C 280.332031 50.742188 282.609375 47.886719 282.609375 43.90625 C 282.609375 40.9375 281.128906 37.210938 277.367188 37.210938 C 273.636719 37.210938 272.011719 40.683594 272.011719 44.015625 C 272.011719 47.847656 274.183594 50.742188 277.257813 50.742188 Z M 277.1875 53.132813 C 272.484375 53.132813 268.792969 49.65625 268.792969 44.121094 C 268.792969 38.261719 272.664063 34.824219 277.476563 34.824219 C 282.503906 34.824219 285.902344 38.476563 285.902344 43.796875 C 285.902344 50.308594 281.378906 53.132813 277.222656 53.132813 L 277.1875 53.132813 "/>
<path style=" stroke:none;fill-rule:nonzero;fill:rgb(100%,100%,100%);fill-opacity:1;" d="M 289.742188 39.964844 C 289.742188 38.117188 289.699219 36.671875 289.589844 35.222656 L 292.414063 35.222656 L 292.59375 38.078125 L 292.667969 38.078125 C 293.535156 36.453125 295.5625 34.824219 298.453125 34.824219 C 300.878906 34.824219 304.648438 36.273438 304.648438 42.277344 L 304.648438 52.730469 L 301.457031 52.730469 L 301.457031 42.636719 C 301.457031 39.820313 300.410156 37.429688 297.40625 37.429688 C 295.34375 37.429688 293.71875 38.914063 293.136719 40.683594 C 292.992188 41.082031 292.921875 41.664063 292.921875 42.171875 L 292.921875 52.730469 L 289.742188 52.730469 L 289.742188 39.964844 "/>
<path style=" stroke:none;fill-rule:nonzero;fill:rgb(100%,100%,100%);fill-opacity:1;" d="M 320.957031 31.027344 L 320.957031 35.222656 L 325.511719 35.222656 L 325.511719 37.644531 L 320.957031 37.644531 L 320.957031 47.089844 C 320.957031 49.257813 321.574219 50.488281 323.34375 50.488281 C 324.214844 50.488281 324.722656 50.417969 325.191406 50.273438 L 325.332031 52.695313 C 324.722656 52.914063 323.742188 53.132813 322.515625 53.132813 C 321.027344 53.132813 319.832031 52.625 319.074219 51.796875 C 318.207031 50.816406 317.84375 49.257813 317.84375 47.195313 L 317.84375 37.644531 L 315.132813 37.644531 L 315.132813 35.222656 L 317.84375 35.222656 L 317.84375 32.003906 L 320.957031 31.027344 "/>
<path style=" stroke:none;fill-rule:nonzero;fill:rgb(100%,100%,100%);fill-opacity:1;" d="M 328.914063 27.046875 L 332.097656 27.046875 L 332.097656 37.972656 L 332.167969 37.972656 C 332.675781 37.066406 333.472656 36.238281 334.449219 35.730469 C 335.390625 35.148438 336.511719 34.824219 337.707031 34.824219 C 340.058594 34.824219 343.816406 36.273438 343.816406 42.316406 L 343.816406 52.730469 L 340.636719 52.730469 L 340.636719 42.675781 C 340.636719 39.820313 339.585938 37.464844 336.582031 37.464844 C 334.523438 37.464844 332.929688 38.914063 332.316406 40.648438 C 332.136719 41.082031 332.097656 41.554688 332.097656 42.171875 L 332.097656 52.730469 L 328.914063 52.730469 L 328.914063 27.046875 "/>
<path style=" stroke:none;fill-rule:nonzero;fill:rgb(100%,100%,100%);fill-opacity:1;" d="M 359.917969 42.242188 C 359.949219 40.25 359.085938 37.066406 355.539063 37.066406 C 352.285156 37.066406 350.90625 40.03125 350.65625 42.242188 Z M 350.621094 44.519531 C 350.691406 48.828125 353.40625 50.597656 356.589844 50.597656 C 358.867188 50.597656 360.28125 50.199219 361.441406 49.730469 L 362.015625 51.972656 C 360.894531 52.476563 358.941406 53.09375 356.152344 53.09375 C 350.800781 53.09375 347.542969 49.511719 347.542969 44.265625 C 347.542969 38.949219 350.691406 34.789063 355.792969 34.789063 C 361.507813 34.789063 362.996094 39.820313 362.996094 43.035156 C 362.996094 43.6875 362.957031 44.195313 362.886719 44.558594 L 350.621094 44.519531 "/>
<path style=" stroke:none;fill-rule:nonzero;fill:rgb(100%,100%,100%);fill-opacity:1;" d="M 374.242188 52.730469 L 374.242188 35.222656 L 377.425781 35.222656 L 377.425781 52.730469 Z M 375.765625 32.003906 C 374.566406 32.003906 373.769531 31.0625 373.769531 29.941406 C 373.769531 28.820313 374.601563 27.914063 375.835938 27.914063 C 377.0625 27.914063 377.859375 28.820313 377.859375 29.941406 C 377.859375 31.0625 377.0625 32.003906 375.792969 32.003906 L 375.765625 32.003906 "/>
<path style=" stroke:none;fill-rule:nonzero;fill:rgb(100%,100%,100%);fill-opacity:1;" d="M 385.78125 40.394531 C 386.46875 40.574219 387.375 40.648438 388.386719 40.648438 C 392.222656 40.648438 394.5 38.769531 394.5 35.476563 C 394.5 32.21875 392.222656 30.664063 388.75 30.664063 C 387.375 30.664063 386.328125 30.808594 385.78125 30.917969 Z M 382.632813 28.671875 C 384.152344 28.386719 386.144531 28.167969 388.675781 28.167969 C 391.785156 28.167969 394.066406 28.890625 395.511719 30.195313 C 396.851563 31.351563 397.683594 33.125 397.683594 35.296875 C 397.683594 37.5 397.03125 39.238281 395.765625 40.503906 C 394.101563 42.277344 391.386719 43.179688 388.3125 43.179688 C 387.375 43.179688 386.507813 43.144531 385.78125 42.96875 L 385.78125 52.730469 L 382.632813 52.730469 L 382.632813 28.671875 "/>
<path style=" stroke:none;fill-rule:nonzero;fill:rgb(100%,100%,100%);fill-opacity:1;" d="M 401.410156 27.046875 L 404.597656 27.046875 L 404.597656 37.972656 L 404.667969 37.972656 C 405.175781 37.066406 405.972656 36.238281 406.945313 35.730469 C 407.890625 35.148438 409.011719 34.824219 410.203125 34.824219 C 412.554688 34.824219 416.316406 36.273438 416.316406 42.316406 L 416.316406 52.730469 L 413.136719 52.730469 L 413.136719 42.675781 C 413.136719 39.820313 412.085938 37.464844 409.082031 37.464844 C 407.023438 37.464844 405.429688 38.914063 404.8125 40.648438 C 404.632813 41.082031 404.597656 41.554688 404.597656 42.171875 L 404.597656 52.730469 L 401.410156 52.730469 L 401.410156 27.046875 "/>
<path style=" stroke:none;fill-rule:nonzero;fill:rgb(100%,100%,100%);fill-opacity:1;" d="M 428.546875 50.742188 C 431.582031 50.742188 433.863281 47.886719 433.863281 43.90625 C 433.863281 40.9375 432.382813 37.210938 428.617188 37.210938 C 424.890625 37.210938 423.261719 40.683594 423.261719 44.015625 C 423.261719 47.847656 425.429688 50.742188 428.507813 50.742188 Z M 428.4375 53.132813 C 423.734375 53.132813 420.042969 49.65625 420.042969 44.121094 C 420.042969 38.261719 423.914063 34.824219 428.726563 34.824219 C 433.753906 34.824219 437.152344 38.476563 437.152344 43.796875 C 437.152344 50.308594 432.632813 53.132813 428.472656 53.132813 L 428.4375 53.132813 "/>
<path style=" stroke:none;fill-rule:nonzero;fill:rgb(100%,100%,100%);fill-opacity:1;" d="M 440.988281 39.964844 C 440.988281 38.117188 440.953125 36.671875 440.84375 35.222656 L 443.667969 35.222656 L 443.847656 38.078125 L 443.921875 38.078125 C 444.789063 36.453125 446.816406 34.824219 449.707031 34.824219 C 452.132813 34.824219 455.890625 36.273438 455.890625 42.277344 L 455.890625 52.730469 L 452.710938 52.730469 L 452.710938 42.636719 C 452.710938 39.820313 451.660156 37.429688 448.65625 37.429688 C 446.597656 37.429688 444.96875 38.914063 444.390625 40.683594 C 444.246094 41.082031 444.167969 41.664063 444.167969 42.171875 L 444.167969 52.730469 L 440.988281 52.730469 L 440.988281 39.964844 "/>
<path style=" stroke:none;fill-rule:nonzero;fill:rgb(100%,100%,100%);fill-opacity:1;" d="M 471.992188 42.242188 C 472.027344 40.25 471.160156 37.066406 467.613281 37.066406 C 464.355469 37.066406 462.984375 40.03125 462.730469 42.242188 Z M 462.695313 44.519531 C 462.765625 48.828125 465.480469 50.597656 468.664063 50.597656 C 470.941406 50.597656 472.355469 50.199219 473.511719 49.730469 L 474.089844 51.972656 C 472.964844 52.476563 471.015625 53.09375 468.230469 53.09375 C 462.875 53.09375 459.617188 49.511719 459.617188 44.265625 C 459.617188 38.949219 462.765625 34.789063 467.867188 34.789063 C 473.582031 34.789063 475.066406 39.820313 475.066406 43.035156 C 475.066406 43.6875 475.03125 44.195313 474.960938 44.558594 L 462.695313 44.519531 "/>
<path style=" stroke:none;fill-rule:nonzero;fill:rgb(100%,100%,100%);fill-opacity:1;" d="M 151.582031 79.632813 C 152.308594 82.449219 153.089844 85.378906 154.09375 88.539063 L 159.875 105.28125 L 143.421875 105.28125 L 149.121094 88.429688 C 149.992188 85.699219 150.8125 82.746094 151.582031 79.632813 Z M 146.492188 69.25 L 125.042969 132.394531 L 134.863281 132.394531 L 141.269531 113.003906 L 162.039063 113.003906 L 168.625 132.394531 L 178.71875 132.394531 L 157.175781 69.25 L 146.492188 69.25 "/>
<path style=" stroke:none;fill-rule:nonzero;fill:rgb(100%,100%,100%);fill-opacity:1;" d="M 204.097656 93.527344 C 212.613281 93.527344 216.425781 101.417969 216.425781 109.234375 C 216.425781 119.316406 211.5625 125.582031 203.734375 125.582031 C 198.390625 125.582031 193.769531 121.945313 192.480469 116.71875 C 192.261719 115.90625 192.140625 114.832031 192.140625 113.621094 L 192.140625 105.941406 C 192.140625 105.246094 192.296875 104.402344 192.445313 103.582031 C 192.492188 103.320313 192.542969 103.0625 192.582031 102.808594 C 194.007813 97.339844 198.738281 93.527344 204.097656 93.527344 Z M 206.480469 85.617188 C 199.972656 85.617188 194.761719 88.128906 191.289063 92.902344 L 190.910156 86.621094 L 182.171875 86.621094 L 182.222656 87.425781 C 182.480469 91.339844 182.589844 95.644531 182.589844 101.828125 L 182.589844 150.5 L 192.140625 150.5 L 192.140625 127.785156 C 195.105469 131.332031 199.839844 133.398438 205.199219 133.398438 C 210.785156 133.398438 215.929688 131.210938 219.679688 127.242188 C 223.863281 122.820313 226.070313 116.464844 226.070313 108.867188 C 226.070313 102.15625 224.152344 96.351563 220.519531 92.089844 C 216.960938 87.914063 211.976563 85.617188 206.480469 85.617188 "/>
<path style=" stroke:none;fill-rule:nonzero;fill:rgb(100%,100%,100%);fill-opacity:1;" d="M 253.296875 93.527344 C 261.808594 93.527344 265.621094 101.417969 265.621094 109.234375 C 265.621094 119.316406 260.753906 125.582031 252.929688 125.582031 C 247.589844 125.582031 242.960938 121.945313 241.675781 116.71875 C 241.453125 115.90625 241.339844 114.832031 241.339844 113.621094 L 241.339844 105.941406 C 241.339844 105.242188 241.492188 104.394531 241.644531 103.574219 C 241.691406 103.316406 241.738281 103.0625 241.78125 102.808594 C 243.203125 97.339844 247.933594 93.527344 253.296875 93.527344 Z M 255.675781 85.617188 C 249.167969 85.617188 243.957031 88.128906 240.484375 92.902344 L 240.105469 86.621094 L 231.367188 86.621094 L 231.417969 87.425781 C 231.675781 91.34375 231.785156 95.644531 231.785156 101.828125 L 231.785156 150.5 L 241.339844 150.5 L 241.339844 127.785156 C 244.300781 131.332031 249.03125 133.398438 254.394531 133.398438 C 259.980469 133.398438 265.121094 131.210938 268.875 127.242188 C 273.054688 122.820313 275.265625 116.464844 275.265625 108.867188 C 275.265625 102.15625 273.34375 96.351563 269.710938 92.089844 C 266.15625 87.914063 261.171875 85.617188 255.675781 85.617188 "/>
<path style=" stroke:none;fill-rule:nonzero;fill:rgb(100%,100%,100%);fill-opacity:1;" d="M 317.304688 96.003906 C 308.386719 92.550781 305.53125 89.835938 305.53125 84.820313 C 305.53125 80.59375 308.886719 76.335938 316.390625 76.335938 C 322.578125 76.335938 326.539063 78.488281 327.605469 79.148438 L 328.414063 79.648438 L 331.109375 71.675781 L 330.578125 71.363281 C 328.976563 70.425781 324.417969 68.242188 316.664063 68.242188 C 304.480469 68.242188 295.972656 75.4375 295.972656 85.730469 C 295.972656 94.035156 301.300781 99.835938 312.742188 103.996094 C 320.847656 107.027344 323.867188 110.132813 323.867188 115.453125 C 323.867188 121.476563 319.210938 125.214844 311.722656 125.214844 C 306.847656 125.214844 301.828125 123.789063 297.953125 121.308594 L 297.125 120.777344 L 294.5625 128.933594 L 295.03125 129.246094 C 298.636719 131.65625 305.425781 133.398438 311.175781 133.398438 C 327.597656 133.398438 333.417969 123.386719 333.417969 114.8125 C 333.417969 105.972656 328.75 100.519531 317.304688 96.003906 "/>
<path style=" stroke:none;fill-rule:nonzero;fill:rgb(100%,100%,100%);fill-opacity:1;" d="M 350.617188 75.746094 L 341.246094 78.6875 L 341.246094 86.621094 L 334.386719 86.621094 L 334.386719 94.257813 L 341.246094 94.257813 L 341.246094 117.648438 C 341.246094 123.300781 342.328125 127.265625 344.554688 129.769531 C 346.6875 132.109375 349.972656 133.398438 353.796875 133.398438 C 357.410156 133.398438 359.972656 132.683594 361.179688 132.257813 L 361.714844 132.066406 L 361.257813 124.417969 L 360.34375 124.699219 C 359.136719 125.070313 357.894531 125.214844 355.898438 125.214844 C 352.195313 125.214844 350.617188 122.871094 350.617188 117.371094 L 350.617188 94.257813 L 362.140625 94.257813 L 362.140625 86.621094 L 350.617188 86.621094 L 350.617188 75.746094 "/>
<path style=" stroke:none;fill-rule:nonzero;fill:rgb(100%,100%,100%);fill-opacity:1;" d="M 385.539063 93.160156 C 394.136719 93.160156 398.046875 101.539063 398.046875 109.328125 C 398.046875 118.902344 392.707031 125.855469 385.359375 125.855469 L 385.265625 125.855469 C 378.019531 125.855469 372.761719 119.019531 372.761719 109.601563 C 372.761719 101.421875 376.710938 93.160156 385.539063 93.160156 Z M 385.816406 85.617188 C 372.449219 85.617188 363.113281 95.59375 363.113281 109.875 C 363.113281 123.726563 372.148438 133.398438 385.082031 133.398438 L 385.171875 133.398438 C 396.109375 133.398438 407.875 125.777344 407.875 109.050781 C 407.875 102.25 405.769531 96.40625 401.785156 92.152344 C 397.777344 87.878906 392.253906 85.617188 385.816406 85.617188 "/>
<path style=" stroke:none;fill-rule:nonzero;fill:rgb(100%,100%,100%);fill-opacity:1;" d="M 437.136719 86.0625 L 436.5625 85.914063 C 435.722656 85.707031 435.035156 85.617188 434.1875 85.617188 C 429.1875 85.617188 424.703125 88.5625 422.207031 93.308594 L 421.925781 86.621094 L 413.355469 86.621094 L 413.410156 87.425781 C 413.664063 91.210938 413.769531 95.453125 413.769531 101.183594 L 413.679688 132.394531 L 423.234375 132.394531 L 423.234375 108.046875 C 423.234375 106.71875 423.328125 105.464844 423.496094 104.34375 C 424.578125 98.492188 428.523438 94.714844 433.550781 94.714844 C 434.527344 94.714844 435.296875 94.792969 436.113281 94.875 L 437.136719 94.980469 L 437.136719 86.0625 "/>
<path style=" stroke:none;fill-rule:nonzero;fill:rgb(100%,100%,100%);fill-opacity:1;" d="M 457.976563 92.796875 C 460.886719 92.796875 463.25 93.695313 464.992188 95.472656 C 467.738281 98.269531 468.222656 102.386719 468.28125 104.363281 L 446.496094 104.363281 C 447.378906 98.847656 450.832031 92.796875 457.976563 92.796875 Z M 458.617188 85.527344 C 445.898438 85.527344 437.011719 95.691406 437.011719 110.238281 C 437.011719 124.253906 445.851563 133.308594 459.527344 133.308594 C 466.722656 133.308594 471.726563 131.726563 474.65625 130.40625 L 475.230469 130.144531 L 473.394531 123.027344 L 472.597656 123.347656 C 469.992188 124.40625 466.535156 125.488281 460.625 125.488281 C 456.476563 125.488281 446.90625 124.121094 446.316406 111.636719 L 477.15625 111.730469 L 477.277344 111.121094 C 477.472656 110.148438 477.566406 108.84375 477.566406 107.132813 C 477.566406 97.167969 472.605469 85.527344 458.617188 85.527344 "/>
<g clip-path="url(#clip2)" clip-rule="nonzero">
<path style=" stroke:none;fill-rule:nonzero;fill:rgb(13.699341%,12.199402%,12.5%);fill-opacity:1;" d="M 511.480469 349.246094 C 511.480469 361.734375 501.359375 371.859375 488.875 371.859375 L 22.609375 371.859375 C 10.125 371.859375 0 361.734375 0 349.246094 L 0 227.160156 C 0 214.675781 10.125 204.550781 22.609375 204.550781 L 488.875 204.550781 C 501.359375 204.550781 511.480469 214.675781 511.480469 227.160156 L 511.480469 349.246094 "/>
</g>
<path style=" stroke:none;fill-rule:nonzero;fill:rgb(100%,100%,100%);fill-opacity:1;" d="M 90.277344 321.933594 L 44.730469 321.933594 L 44.730469 253.847656 L 90.277344 253.847656 Z M 67.503906 336.910156 C 64.179688 336.910156 61.484375 334.21875 61.484375 330.886719 C 61.484375 327.5625 64.179688 324.867188 67.503906 324.867188 C 70.835938 324.867188 73.53125 327.5625 73.53125 330.886719 C 73.53125 334.21875 70.835938 336.910156 67.503906 336.910156 Z M 88.335938 233.160156 L 46.671875 233.160156 C 41.679688 233.160156 37.632813 237.207031 37.632813 242.203125 L 37.632813 334.507813 C 37.632813 339.5 41.679688 343.550781 46.671875 343.550781 L 88.335938 343.550781 C 93.332031 343.550781 97.382813 339.5 97.382813 334.507813 L 97.382813 242.203125 C 97.382813 237.207031 93.332031 233.160156 88.335938 233.160156 "/>
<path style=" stroke:none;fill-rule:nonzero;fill:rgb(100%,100%,100%);fill-opacity:1;" d="M 139.496094 247.152344 L 137.074219 240.136719 C 136.566406 238.539063 136.203125 237.097656 135.84375 235.6875 L 135.738281 235.6875 C 135.410156 237.097656 135.015625 238.617188 134.542969 240.097656 L 132.15625 247.152344 Z M 131.503906 249.613281 L 128.972656 257.28125 L 125.714844 257.28125 L 134 232.898438 L 137.800781 232.898438 L 146.121094 257.28125 L 142.753906 257.28125 L 140.148438 249.613281 L 131.503906 249.613281 "/>
<path style=" stroke:none;fill-rule:nonzero;fill:rgb(100%,100%,100%);fill-opacity:1;" d="M 149.378906 239.773438 L 152.8125 249.578125 C 153.394531 251.203125 153.863281 252.652344 154.226563 254.097656 L 154.335938 254.097656 C 154.734375 252.652344 155.238281 251.203125 155.816406 249.578125 L 159.21875 239.773438 L 162.546875 239.773438 L 155.671875 257.28125 L 152.632813 257.28125 L 145.980469 239.773438 L 149.378906 239.773438 "/>
<path style=" stroke:none;fill-rule:nonzero;fill:rgb(100%,100%,100%);fill-opacity:1;" d="M 174.085938 248.347656 C 170.613281 248.273438 166.675781 248.890625 166.675781 252.289063 C 166.675781 254.386719 168.046875 255.328125 169.636719 255.328125 C 171.953125 255.328125 173.4375 253.882813 173.945313 252.398438 C 174.050781 252.070313 174.085938 251.710938 174.085938 251.386719 Z M 177.199219 253.089844 C 177.199219 254.605469 177.273438 256.085938 177.453125 257.28125 L 174.597656 257.28125 L 174.304688 255.074219 L 174.195313 255.074219 C 173.257813 256.453125 171.339844 257.679688 168.84375 257.679688 C 165.296875 257.679688 163.488281 255.1875 163.488281 252.652344 C 163.488281 248.417969 167.253906 246.105469 174.015625 246.140625 L 174.015625 245.777344 C 174.015625 244.332031 173.617188 241.6875 170.039063 241.730469 C 168.371094 241.730469 166.675781 242.195313 165.441406 243.027344 L 164.714844 240.890625 C 166.164063 239.988281 168.300781 239.375 170.503906 239.375 C 175.898438 239.375 177.199219 243.027344 177.199219 246.539063 L 177.199219 253.089844 "/>
<path style=" stroke:none;fill-rule:nonzero;fill:rgb(100%,100%,100%);fill-opacity:1;" d="M 182.117188 257.28125 L 182.117188 239.773438 L 185.304688 239.773438 L 185.304688 257.28125 Z M 183.636719 236.550781 C 182.445313 236.550781 181.648438 235.613281 181.648438 234.488281 C 181.648438 233.367188 182.480469 232.464844 183.710938 232.464844 C 184.941406 232.464844 185.738281 233.367188 185.738281 234.488281 C 185.738281 235.613281 184.941406 236.550781 183.675781 236.550781 L 183.636719 236.550781 "/>
<path style=" stroke:none;fill-rule:nonzero;fill:rgb(100%,100%,100%);fill-opacity:1;" d="M 190.402344 231.597656 L 193.585938 231.597656 L 193.585938 257.28125 L 190.402344 257.28125 L 190.402344 231.597656 "/>
<path style=" stroke:none;fill-rule:nonzero;fill:rgb(100%,100%,100%);fill-opacity:1;" d="M 207.914063 248.347656 C 204.4375 248.273438 200.492188 248.890625 200.492188 252.289063 C 200.492188 254.386719 201.871094 255.328125 203.460938 255.328125 C 205.777344 255.328125 207.261719 253.882813 207.765625 252.398438 C 207.878906 252.070313 207.914063 251.710938 207.914063 251.386719 Z M 211.023438 253.089844 C 211.023438 254.605469 211.097656 256.085938 211.277344 257.28125 L 208.414063 257.28125 L 208.128906 255.074219 L 208.019531 255.074219 C 207.078125 256.453125 205.164063 257.679688 202.664063 257.679688 C 199.121094 257.679688 197.3125 255.1875 197.3125 252.652344 C 197.3125 248.417969 201.074219 246.105469 207.839844 246.140625 L 207.839844 245.777344 C 207.839844 244.332031 207.441406 241.6875 203.859375 241.730469 C 202.195313 241.730469 200.492188 242.195313 199.265625 243.027344 L 198.539063 240.890625 C 199.988281 239.988281 202.125 239.375 204.328125 239.375 C 209.722656 239.375 211.023438 243.027344 211.023438 246.539063 L 211.023438 253.089844 "/>
<path style=" stroke:none;fill-rule:nonzero;fill:rgb(100%,100%,100%);fill-opacity:1;" d="M 219.125 250.265625 C 219.125 250.660156 219.160156 251.058594 219.238281 251.421875 C 219.847656 253.628906 221.730469 255.148438 224.011719 255.148438 C 227.375 255.148438 229.328125 252.4375 229.328125 248.417969 C 229.328125 244.871094 227.519531 241.871094 224.121094 241.871094 C 221.949219 241.871094 219.921875 243.390625 219.304688 245.777344 C 219.199219 246.175781 219.125 246.609375 219.125 247.117188 Z M 215.941406 231.597656 L 219.125 231.597656 L 219.125 242.558594 L 219.199219 242.558594 C 220.320313 240.605469 222.34375 239.375 225.164063 239.375 C 229.507813 239.375 232.546875 242.992188 232.546875 248.273438 C 232.546875 254.570313 228.566406 257.679688 224.660156 257.679688 C 222.132813 257.679688 220.136719 256.703125 218.800781 254.386719 L 218.726563 254.386719 L 218.542969 257.28125 L 215.800781 257.28125 C 215.90625 256.085938 215.941406 254.316406 215.941406 252.761719 L 215.941406 231.597656 "/>
<path style=" stroke:none;fill-rule:nonzero;fill:rgb(100%,100%,100%);fill-opacity:1;" d="M 236.34375 231.597656 L 239.527344 231.597656 L 239.527344 257.28125 L 236.34375 257.28125 L 236.34375 231.597656 "/>
<path style=" stroke:none;fill-rule:nonzero;fill:rgb(100%,100%,100%);fill-opacity:1;" d="M 255.734375 246.792969 C 255.769531 244.800781 254.898438 241.613281 251.355469 241.613281 C 248.101563 241.613281 246.726563 244.582031 246.472656 246.792969 Z M 246.4375 249.070313 C 246.507813 253.378906 249.222656 255.148438 252.40625 255.148438 C 254.6875 255.148438 256.097656 254.75 257.253906 254.277344 L 257.832031 256.519531 C 256.714844 257.027344 254.757813 257.644531 251.972656 257.644531 C 246.617188 257.644531 243.359375 254.0625 243.359375 248.816406 C 243.359375 243.5 246.507813 239.339844 251.613281 239.339844 C 257.324219 239.339844 258.808594 244.367188 258.808594 247.585938 C 258.808594 248.238281 258.773438 248.742188 258.699219 249.105469 L 246.4375 249.070313 "/>
<path style=" stroke:none;fill-rule:nonzero;fill:rgb(100%,100%,100%);fill-opacity:1;" d="M 277.292969 255.292969 C 280.332031 255.292969 282.609375 252.4375 282.609375 248.453125 C 282.609375 245.488281 281.128906 241.761719 277.367188 241.761719 C 273.636719 241.761719 272.011719 245.234375 272.011719 248.5625 C 272.011719 252.398438 274.183594 255.292969 277.257813 255.292969 Z M 277.1875 257.679688 C 272.484375 257.679688 268.792969 254.207031 268.792969 248.671875 C 268.792969 242.8125 272.664063 239.375 277.476563 239.375 C 282.503906 239.375 285.902344 243.027344 285.902344 248.347656 C 285.902344 254.859375 281.378906 257.679688 277.222656 257.679688 L 277.1875 257.679688 "/>
<path style=" stroke:none;fill-rule:nonzero;fill:rgb(100%,100%,100%);fill-opacity:1;" d="M 289.742188 244.515625 C 289.742188 242.664063 289.699219 241.222656 289.589844 239.773438 L 292.414063 239.773438 L 292.59375 242.628906 L 292.667969 242.628906 C 293.535156 241.003906 295.5625 239.375 298.453125 239.375 C 300.878906 239.375 304.648438 240.820313 304.648438 246.828125 L 304.648438 257.28125 L 301.457031 257.28125 L 301.457031 247.1875 C 301.457031 244.367188 300.410156 241.980469 297.40625 241.980469 C 295.34375 241.980469 293.71875 243.464844 293.136719 245.234375 C 292.992188 245.632813 292.921875 246.214844 292.921875 246.71875 L 292.921875 257.28125 L 289.742188 257.28125 L 289.742188 244.515625 "/>
<path style=" stroke:none;fill-rule:nonzero;fill:rgb(100%,100%,100%);fill-opacity:1;" d="M 320.957031 235.578125 L 320.957031 239.773438 L 325.511719 239.773438 L 325.511719 242.195313 L 320.957031 242.195313 L 320.957031 251.640625 C 320.957031 253.808594 321.574219 255.039063 323.34375 255.039063 C 324.214844 255.039063 324.722656 254.96875 325.191406 254.820313 L 325.332031 257.246094 C 324.722656 257.464844 323.742188 257.679688 322.515625 257.679688 C 321.027344 257.679688 319.832031 257.175781 319.074219 256.34375 C 318.207031 255.363281 317.84375 253.808594 317.84375 251.746094 L 317.84375 242.195313 L 315.132813 242.195313 L 315.132813 239.773438 L 317.84375 239.773438 L 317.84375 236.550781 L 320.957031 235.578125 "/>
<path style=" stroke:none;fill-rule:nonzero;fill:rgb(100%,100%,100%);fill-opacity:1;" d="M 328.914063 231.597656 L 332.097656 231.597656 L 332.097656 242.523438 L 332.167969 242.523438 C 332.675781 241.613281 333.472656 240.785156 334.449219 240.277344 C 335.390625 239.699219 336.511719 239.375 337.707031 239.375 C 340.058594 239.375 343.816406 240.820313 343.816406 246.863281 L 343.816406 257.28125 L 340.636719 257.28125 L 340.636719 247.226563 C 340.636719 244.367188 339.585938 242.015625 336.582031 242.015625 C 334.523438 242.015625 332.929688 243.464844 332.316406 245.199219 C 332.136719 245.632813 332.097656 246.105469 332.097656 246.71875 L 332.097656 257.28125 L 328.914063 257.28125 L 328.914063 231.597656 "/>
<path style=" stroke:none;fill-rule:nonzero;fill:rgb(100%,100%,100%);fill-opacity:1;" d="M 359.917969 246.792969 C 359.949219 244.800781 359.085938 241.613281 355.539063 241.613281 C 352.285156 241.613281 350.90625 244.582031 350.65625 246.792969 Z M 350.621094 249.070313 C 350.691406 253.378906 353.40625 255.148438 356.589844 255.148438 C 358.867188 255.148438 360.28125 254.75 361.441406 254.277344 L 362.015625 256.519531 C 360.894531 257.027344 358.941406 257.644531 356.152344 257.644531 C 350.800781 257.644531 347.542969 254.0625 347.542969 248.816406 C 347.542969 243.5 350.691406 239.339844 355.792969 239.339844 C 361.507813 239.339844 362.996094 244.367188 362.996094 247.585938 C 362.996094 248.238281 362.957031 248.742188 362.886719 249.105469 L 350.621094 249.070313 "/>
<path style=" stroke:none;fill-rule:nonzero;fill:rgb(100%,100%,100%);fill-opacity:1;" d="M 374.242188 257.28125 L 374.242188 239.773438 L 377.425781 239.773438 L 377.425781 257.28125 Z M 375.765625 236.550781 C 374.566406 236.550781 373.769531 235.613281 373.769531 234.488281 C 373.769531 233.367188 374.601563 232.464844 375.835938 232.464844 C 377.0625 232.464844 377.859375 233.367188 377.859375 234.488281 C 377.859375 235.613281 377.0625 236.550781 375.792969 236.550781 L 375.765625 236.550781 "/>
<path style=" stroke:none;fill-rule:nonzero;fill:rgb(100%,100%,100%);fill-opacity:1;" d="M 385.78125 244.945313 C 386.46875 245.125 387.375 245.199219 388.386719 245.199219 C 392.222656 245.199219 394.5 243.316406 394.5 240.023438 C 394.5 236.769531 392.222656 235.214844 388.75 235.214844 C 387.375 235.214844 386.328125 235.355469 385.78125 235.46875 Z M 382.632813 233.222656 C 384.152344 232.9375 386.144531 232.71875 388.675781 232.71875 C 391.785156 232.71875 394.066406 233.441406 395.511719 234.746094 C 396.851563 235.898438 397.683594 237.675781 397.683594 239.84375 C 397.683594 242.050781 397.03125 243.789063 395.765625 245.054688 C 394.101563 246.828125 391.386719 247.730469 388.3125 247.730469 C 387.375 247.730469 386.507813 247.691406 385.78125 247.515625 L 385.78125 257.28125 L 382.632813 257.28125 L 382.632813 233.222656 "/>
<path style=" stroke:none;fill-rule:nonzero;fill:rgb(100%,100%,100%);fill-opacity:1;" d="M 401.410156 231.597656 L 404.597656 231.597656 L 404.597656 242.523438 L 404.667969 242.523438 C 405.175781 241.613281 405.972656 240.785156 406.945313 240.277344 C 407.890625 239.699219 409.011719 239.375 410.203125 239.375 C 412.554688 239.375 416.316406 240.820313 416.316406 246.863281 L 416.316406 257.28125 L 413.136719 257.28125 L 413.136719 247.226563 C 413.136719 244.367188 412.085938 242.015625 409.082031 242.015625 C 407.023438 242.015625 405.429688 243.464844 404.8125 245.199219 C 404.632813 245.632813 404.597656 246.105469 404.597656 246.71875 L 404.597656 257.28125 L 401.410156 257.28125 L 401.410156 231.597656 "/>
<path style=" stroke:none;fill-rule:nonzero;fill:rgb(100%,100%,100%);fill-opacity:1;" d="M 428.546875 255.292969 C 431.582031 255.292969 433.863281 252.4375 433.863281 248.453125 C 433.863281 245.488281 432.382813 241.761719 428.617188 241.761719 C 424.890625 241.761719 423.261719 245.234375 423.261719 248.5625 C 423.261719 252.398438 425.429688 255.292969 428.507813 255.292969 Z M 428.4375 257.679688 C 423.734375 257.679688 420.042969 254.207031 420.042969 248.671875 C 420.042969 242.8125 423.914063 239.375 428.726563 239.375 C 433.753906 239.375 437.152344 243.027344 437.152344 248.347656 C 437.152344 254.859375 432.632813 257.679688 428.472656 257.679688 L 428.4375 257.679688 "/>
<path style=" stroke:none;fill-rule:nonzero;fill:rgb(100%,100%,100%);fill-opacity:1;" d="M 440.988281 244.515625 C 440.988281 242.664063 440.953125 241.222656 440.84375 239.773438 L 443.667969 239.773438 L 443.847656 242.628906 L 443.921875 242.628906 C 444.789063 241.003906 446.816406 239.375 449.707031 239.375 C 452.132813 239.375 455.890625 240.820313 455.890625 246.828125 L 455.890625 257.28125 L 452.710938 257.28125 L 452.710938 247.1875 C 452.710938 244.367188 451.660156 241.980469 448.65625 241.980469 C 446.597656 241.980469 444.96875 243.464844 444.390625 245.234375 C 444.246094 245.632813 444.167969 246.214844 444.167969 246.71875 L 444.167969 257.28125 L 440.988281 257.28125 L 440.988281 244.515625 "/>
<path style=" stroke:none;fill-rule:nonzero;fill:rgb(100%,100%,100%);fill-opacity:1;" d="M 471.992188 246.792969 C 472.027344 244.800781 471.160156 241.613281 467.613281 241.613281 C 464.355469 241.613281 462.984375 244.582031 462.730469 246.792969 Z M 462.695313 249.070313 C 462.765625 253.378906 465.480469 255.148438 468.664063 255.148438 C 470.941406 255.148438 472.355469 254.75 473.511719 254.277344 L 474.089844 256.519531 C 472.964844 257.027344 471.015625 257.644531 468.230469 257.644531 C 462.875 257.644531 459.617188 254.0625 459.617188 248.816406 C 459.617188 243.5 462.765625 239.339844 467.867188 239.339844 C 473.582031 239.339844 475.066406 244.367188 475.066406 247.585938 C 475.066406 248.238281 475.03125 248.742188 474.960938 249.105469 L 462.695313 249.070313 "/>
<path style=" stroke:none;fill-rule:nonzero;fill:rgb(100%,100%,100%);fill-opacity:1;" d="M 151.582031 284.183594 C 152.308594 287 153.089844 289.925781 154.09375 293.089844 L 159.875 309.832031 L 143.421875 309.832031 L 149.121094 292.980469 C 149.992188 290.246094 150.8125 287.296875 151.582031 284.183594 Z M 146.492188 273.800781 L 125.042969 336.941406 L 134.863281 336.941406 L 141.269531 317.554688 L 162.039063 317.554688 L 168.625 336.941406 L 178.71875 336.941406 L 157.175781 273.800781 L 146.492188 273.800781 "/>
<path style=" stroke:none;fill-rule:nonzero;fill:rgb(100%,100%,100%);fill-opacity:1;" d="M 204.097656 298.078125 C 212.613281 298.078125 216.425781 305.96875 216.425781 313.78125 C 216.425781 323.867188 211.5625 330.132813 203.734375 330.132813 C 198.390625 330.132813 193.769531 326.492188 192.480469 321.265625 C 192.261719 320.453125 192.140625 319.382813 192.140625 318.171875 L 192.140625 310.488281 C 192.140625 309.796875 192.296875 308.949219 192.445313 308.132813 C 192.492188 307.871094 192.542969 307.609375 192.582031 307.355469 C 194.007813 301.890625 198.738281 298.078125 204.097656 298.078125 Z M 206.480469 290.167969 C 199.972656 290.167969 194.761719 292.679688 191.289063 297.453125 L 190.910156 291.171875 L 182.171875 291.171875 L 182.222656 291.976563 C 182.480469 295.890625 182.589844 300.195313 182.589844 306.378906 L 182.589844 355.050781 L 192.140625 355.050781 L 192.140625 332.335938 C 195.105469 335.882813 199.839844 337.945313 205.199219 337.945313 C 210.785156 337.945313 215.929688 335.761719 219.679688 331.792969 C 223.863281 327.371094 226.070313 321.011719 226.070313 313.417969 C 226.070313 306.703125 224.152344 300.902344 220.519531 296.640625 C 216.960938 292.464844 211.976563 290.167969 206.480469 290.167969 "/>
<path style=" stroke:none;fill-rule:nonzero;fill:rgb(100%,100%,100%);fill-opacity:1;" d="M 253.296875 298.078125 C 261.808594 298.078125 265.621094 305.96875 265.621094 313.78125 C 265.621094 323.867188 260.753906 330.132813 252.929688 330.132813 C 247.589844 330.132813 242.960938 326.492188 241.675781 321.265625 C 241.453125 320.453125 241.339844 319.382813 241.339844 318.171875 L 241.339844 310.488281 C 241.339844 309.789063 241.492188 308.941406 241.644531 308.125 C 241.691406 307.867188 241.738281 307.609375 241.78125 307.355469 C 243.203125 301.890625 247.933594 298.078125 253.296875 298.078125 Z M 255.675781 290.167969 C 249.167969 290.167969 243.957031 292.679688 240.484375 297.453125 L 240.105469 291.171875 L 231.367188 291.171875 L 231.417969 291.976563 C 231.675781 295.894531 231.785156 300.195313 231.785156 306.378906 L 231.785156 355.050781 L 241.339844 355.050781 L 241.339844 332.335938 C 244.300781 335.882813 249.03125 337.945313 254.394531 337.945313 C 259.980469 337.945313 265.121094 335.761719 268.875 331.792969 C 273.054688 327.371094 275.265625 321.011719 275.265625 313.417969 C 275.265625 306.703125 273.34375 300.902344 269.710938 296.640625 C 266.15625 292.464844 261.171875 290.167969 255.675781 290.167969 "/>
<path style=" stroke:none;fill-rule:nonzero;fill:rgb(100%,100%,100%);fill-opacity:1;" d="M 317.304688 300.554688 C 308.386719 297.101563 305.53125 294.386719 305.53125 289.367188 C 305.53125 285.144531 308.886719 280.886719 316.390625 280.886719 C 322.578125 280.886719 326.539063 283.035156 327.605469 283.699219 L 328.414063 284.199219 L 331.109375 276.226563 L 330.578125 275.914063 C 328.976563 274.976563 324.417969 272.792969 316.664063 272.792969 C 304.480469 272.792969 295.972656 279.984375 295.972656 290.28125 C 295.972656 298.582031 301.300781 304.386719 312.742188 308.546875 C 320.847656 311.574219 323.867188 314.679688 323.867188 320 C 323.867188 326.023438 319.210938 329.765625 311.722656 329.765625 C 306.847656 329.765625 301.828125 328.339844 297.953125 325.859375 L 297.125 325.328125 L 294.5625 333.484375 L 295.03125 333.796875 C 298.636719 336.203125 305.425781 337.945313 311.175781 337.945313 C 327.597656 337.945313 333.417969 327.9375 333.417969 319.359375 C 333.417969 310.523438 328.75 305.070313 317.304688 300.554688 "/>
<path style=" stroke:none;fill-rule:nonzero;fill:rgb(100%,100%,100%);fill-opacity:1;" d="M 350.617188 280.296875 L 341.246094 283.234375 L 341.246094 291.171875 L 334.386719 291.171875 L 334.386719 298.808594 L 341.246094 298.808594 L 341.246094 322.195313 C 341.246094 327.851563 342.328125 331.8125 344.554688 334.316406 C 346.6875 336.65625 349.972656 337.945313 353.796875 337.945313 C 357.410156 337.945313 359.972656 337.234375 361.179688 336.808594 L 361.714844 336.617188 L 361.257813 328.96875 L 360.34375 329.25 C 359.136719 329.621094 357.894531 329.765625 355.898438 329.765625 C 352.195313 329.765625 350.617188 327.421875 350.617188 321.921875 L 350.617188 298.808594 L 362.140625 298.808594 L 362.140625 291.171875 L 350.617188 291.171875 L 350.617188 280.296875 "/>
<path style=" stroke:none;fill-rule:nonzero;fill:rgb(100%,100%,100%);fill-opacity:1;" d="M 385.539063 297.710938 C 394.136719 297.710938 398.046875 306.089844 398.046875 313.875 C 398.046875 323.453125 392.707031 330.40625 385.359375 330.40625 L 385.265625 330.40625 C 378.019531 330.40625 372.761719 323.570313 372.761719 314.152344 C 372.761719 305.96875 376.710938 297.710938 385.539063 297.710938 Z M 385.816406 290.167969 C 372.449219 290.167969 363.113281 300.144531 363.113281 314.425781 C 363.113281 328.273438 372.148438 337.945313 385.082031 337.945313 L 385.171875 337.945313 C 396.109375 337.945313 407.875 330.328125 407.875 313.601563 C 407.875 306.800781 405.769531 300.957031 401.785156 296.703125 C 397.777344 292.429688 392.253906 290.167969 385.816406 290.167969 "/>
<path style=" stroke:none;fill-rule:nonzero;fill:rgb(100%,100%,100%);fill-opacity:1;" d="M 437.136719 290.609375 L 436.5625 290.464844 C 435.722656 290.257813 435.035156 290.167969 434.1875 290.167969 C 429.1875 290.167969 424.703125 293.109375 422.207031 297.859375 L 421.925781 291.171875 L 413.355469 291.171875 L 413.410156 291.976563 C 413.664063 295.757813 413.769531 300.003906 413.769531 305.734375 L 413.679688 336.941406 L 423.234375 336.941406 L 423.234375 312.59375 C 423.234375 311.269531 423.328125 310.015625 423.496094 308.894531 C 424.578125 303.042969 428.523438 299.265625 433.550781 299.265625 C 434.527344 299.265625 435.296875 299.34375 436.113281 299.425781 L 437.136719 299.527344 L 437.136719 290.609375 "/>
<path style=" stroke:none;fill-rule:nonzero;fill:rgb(100%,100%,100%);fill-opacity:1;" d="M 457.976563 297.347656 C 460.886719 297.347656 463.25 298.246094 464.992188 300.019531 C 467.738281 302.816406 468.222656 306.9375 468.28125 308.914063 L 446.496094 308.914063 C 447.378906 303.398438 450.832031 297.347656 457.976563 297.347656 Z M 458.617188 290.078125 C 445.898438 290.078125 437.011719 300.238281 437.011719 314.789063 C 437.011719 328.800781 445.851563 337.855469 459.527344 337.855469 C 466.722656 337.855469 471.726563 336.277344 474.65625 334.953125 L 475.230469 334.695313 L 473.394531 327.578125 L 472.597656 327.898438 C 469.992188 328.957031 466.535156 330.039063 460.625 330.039063 C 456.476563 330.039063 446.90625 328.671875 446.316406 316.1875 L 477.15625 316.277344 L 477.277344 315.671875 C 477.472656 314.699219 477.566406 313.390625 477.566406 311.683594 C 477.566406 301.71875 472.605469 290.078125 458.617188 290.078125 "/>
</g>
</svg>
